# xmcd
#
# Track frame offsets:
#	150
#	16657
#	29092
#	43574
#	56457
#	76309
#	93024
#	106156
#	124196
#	138776
#	156751
#	171158
#	188583
#	202748
#	216315
#
# Disc length: 3109
#
# Revision: 2
# Processed by: cddbd v1.5.1PL0 Copyright (c) Steve Scherf et al.
# Submitted via: audiograbber 1.83.01
# Normalized: r1:TDELIM( - )
#
DISCID=b60c230f
DTITLE=Various Artist - SC7590
DYEAR=1900
DGENRE=Karaoke Country
TTITLE0=Barbars Mandrell - If Loveing You Is Wrong I Don't Want To Be Right
TTITLE1=Jerry Reed - When You're Hot, Your're Hot
TTITLE2=Dolly Parton - I Will Always Love You
TTITLE3=Marie Osmond - Paper Roses
TTITLE4=C W McCall - Convoy
TTITLE5=Glen Campbell - Southern Nights
TTITLE6=Merle Haggard - If We Make It Through December
TTITLE7=B J Thomas - Hey Won't You Play
TTITLE8=Crystal Gayle - Why Have You Left The One You Left Me For
TTITLE9=Kenny Rogers - You Decorated My Life
TTITLE10=Jerry Reed - East Bound And Down
TTITLE11=Willie Nelson - Blue Skies
TTITLE12=Conway Twitty - Happy Birthday Darlin'
TTITLE13=Larry Gatlin and The Gatlin Brothers - All The Gold In California
TTITLE14=Bellamy Brothers, The - If I said You Had A Beautiful Body
EXTD=
EXTT0=
EXTT1=
EXTT2=
EXTT3=
EXTT4=
EXTT5=
EXTT6=
EXTT7=
EXTT8=
EXTT9=
EXTT10=
EXTT11=
EXTT12=
EXTT13=
EXTT14=
PLAYORDER=
